<?xml version="1.0" encoding="UTF-8"?>
<svg version="1.1" xmlns="http://www.w3.org/2000/svg" width="1080" height="1080">
<path d="M0 0 C356.4 0 712.8 0 1080 0 C1080 356.4 1080 712.8 1080 1080 C723.6 1080 367.2 1080 0 1080 C0 723.6 0 367.2 0 0 Z " fill="#F87216" transform="translate(0,0)"/>
<path d="M0 0 C356.4 0 712.8 0 1080 0 C1080 356.4 1080 712.8 1080 1080 C723.6 1080 367.2 1080 0 1080 C0 723.6 0 367.2 0 0 Z M647.45117188 55.91503906 C636.94238557 59.50983138 631.19328576 60.47703131 620.8125 56.5 C610.07149943 52.64067574 599.31696164 50.18499304 588.125 48.0625 C587.34855133 47.91361328 586.57210266 47.76472656 585.77212524 47.61132812 C583.51872764 47.18227412 581.26389887 46.76232387 579.0078125 46.34765625 C578.01821281 46.16379112 578.01821281 46.16379112 577.00862122 45.97621155 C567.45184251 44.27489326 557.96484541 43.8182266 548.26953125 43.7265625 C546.45048027 43.70783836 546.45048027 43.70783836 544.59468079 43.68873596 C540.6672889 43.6561794 536.73999835 43.63628989 532.8125 43.625 C532.14390709 43.62284611 531.47531418 43.62069221 530.78646088 43.61847305 C507.53112281 43.55809098 484.91042431 44.87140352 462 49 C460.95634277 49.1762793 459.91268555 49.35255859 458.83740234 49.53417969 C402.44131635 59.29897633 350.31284825 89.68868379 307 126 C306.39704102 126.5038623 305.79408203 127.00772461 305.17285156 127.52685547 C288.47207653 141.43898465 288.47207653 141.43898465 273.5625 157.1875 C271.84630523 159.17828594 270.01259433 160.98389299 268.125 162.8125 C264.23188518 166.6533081 260.81683216 170.77872559 257.3984375 175.04296875 C255.36457858 177.55051142 253.2806344 180.00050074 251.16308594 182.43725586 C231.55684921 205.12335876 214.90809887 231.03320689 200 257 C199.57847656 257.73412109 199.15695313 258.46824219 198.72265625 259.22460938 C166.00478363 316.55733009 139.39188236 378.65525557 123.32421875 442.796875 C122.35430249 446.66530278 121.2921623 450.49243512 120.16479492 454.31738281 C116.23366505 467.74728251 113.59478323 481.50735654 110.78271484 495.20507812 C110.12478979 498.39496801 109.45236293 501.58100445 108.76953125 504.765625 C106.54946556 515.25592155 104.99937716 525.7582937 103.7109375 536.40234375 C103.22138512 540.40463043 102.64249772 544.38412087 102.015625 548.3671875 C90.13152255 624.92801591 93.48028731 718.37177986 140.46484375 783.453125 C146.1301971 791.10292075 152.43296538 798.12024945 159 805 C159.80050781 805.85335937 160.60101563 806.70671875 161.42578125 807.5859375 C184.9225132 831.96716181 216.17872224 847.48509734 247.38128662 859.49996948 C261.44663451 864.92388373 275.39837195 870.48391688 289 877 C289.67998047 877.31952637 290.35996094 877.63905273 291.06054688 877.96826172 C322.27184332 892.67387017 348.62314352 914.34282874 372.73046875 938.76171875 C375.40757686 941.40196479 378.21439648 943.84605 381.0703125 946.2890625 C383.13308521 948.11799863 385.0659072 950.03580458 387 952 C390.12845964 955.17089998 393.36855352 958.1256996 396.74609375 961.02734375 C398.95932465 962.96440025 401.12147968 964.95040666 403.27709961 966.95117188 C408.35164299 971.65696564 413.52177664 976.16924316 418.91796875 980.5078125 C421.23164118 982.37869084 423.52186579 984.26731879 425.80078125 986.1796875 C458.88504459 1013.87722946 496.46999176 1039.82848754 539 1050 C539.80824219 1050.21011719 540.61648438 1050.42023437 541.44921875 1050.63671875 C561.91935406 1055.67387247 585.30218321 1053.94596657 606 1051 C606.90669434 1050.87109375 607.81338867 1050.7421875 608.74755859 1050.609375 C646.11960411 1045.09264045 690.2809381 1032.16166137 717.15625 1004.08203125 C719 1003 719 1003 721.640625 1003.0625 C726.09403831 1004.30531302 730.08420068 1006.20301931 734.25 1008.1875 C769.61004321 1024.49055267 806.94231831 1026.51593139 845 1019 C846.08023438 1018.79101074 847.16046875 1018.58202148 848.2734375 1018.36669922 C875.49525136 1012.97163961 904.26429358 1003.38100587 927 987 C927.99515625 986.29875 928.9903125 985.5975 930.015625 984.875 C939.82026966 977.76540013 950.24921454 969.12617819 957 959 C957.016173 956.22902515 956.48763555 953.74849127 956 951 C954.33663348 949.33663348 952.31200507 949.81231015 950.0234375 949.75390625 C948.9722876 949.72256592 947.9211377 949.69122559 946.83813477 949.65893555 C945.69530029 949.62711182 944.55246582 949.59528809 943.375 949.5625 C855.71551086 946.56831251 777.02807738 913.51592175 698.147995 877.78007507 C687.80538373 873.09531651 677.41237211 868.52726664 667 864 C665.40091797 863.30052246 665.40091797 863.30052246 663.76953125 862.58691406 C641.16965888 851.30920038 641.16965888 851.30920038 617 846 C617.33 845.34 617.66 844.68 618 844 C620.34259226 843.48911552 622.63146071 843.09678032 625 842.75 C668.83271652 835.63519306 712.53164805 819.9350882 750 796 C750.72445312 795.53770996 751.44890625 795.07541992 752.1953125 794.59912109 C767.95272541 784.46307048 782.94473412 773.39600486 797 761 C797.70858154 760.37899414 798.41716309 759.75798828 799.1472168 759.11816406 C805.77848588 753.23708699 812.10371702 747.08249246 818.3684082 740.81689453 C820.05857346 739.12892145 821.75660834 737.44914276 823.45507812 735.76953125 C830.09127374 729.16759671 836.19470539 722.35750851 842 715 C843.09606674 713.67100934 844.19594767 712.34514898 845.30078125 711.0234375 C853.03866199 701.67889363 860.16172955 692.01869312 867 682 C867.42345703 681.38334473 867.84691406 680.76668945 868.28320312 680.13134766 C871.25314707 675.79527656 874.14313182 671.41124797 877 667 C877.46954102 666.28021973 877.93908203 665.56043945 878.42285156 664.81884766 C907.54889442 619.90904548 928.02633448 570.34180045 945.34509277 519.90289307 C945.9611481 518.11288776 946.58244939 516.32469037 947.20410156 514.53662109 C951.89773414 501.02856828 955.85147043 487.47284992 959.32958984 473.60449219 C960.12619846 470.50972863 960.9991983 467.44169968 961.88769531 464.37231445 C968.63448421 440.98721242 972.88708889 416.962439 977 393 C977.19867676 391.85144531 977.39735352 390.70289063 977.60205078 389.51953125 C980.47984335 372.66065197 982.2415302 355.76422098 983.67529297 338.734375 C983.96410283 335.4128444 984.28741246 332.09769045 984.62890625 328.78125 C990.04141025 273.92602398 985.4945512 215.52036715 965 164 C964.72865234 163.31131836 964.45730469 162.62263672 964.17773438 161.91308594 C945.07651194 114.16002985 908.99632934 76.73337964 861.94604492 56.31054688 C844.21135558 48.83450667 826.06148837 43.63674767 807 41 C805.92911133 40.85046875 804.85822266 40.7009375 803.75488281 40.546875 C751.05894969 33.53083111 697.66731765 38.54528253 647.45117188 55.91503906 Z " fill="#FEFEFE" transform="translate(0,0)"/>
<path d="M0 0 C3.97334425 0.00315326 7.94593707 -0.02034383 11.91918945 -0.0456543 C26.66458105 -0.08298557 40.80575314 0.65499605 55.31176758 3.31567383 C56.63782093 3.54348437 57.96406401 3.77019436 59.29052734 3.99560547 C62.78916342 4.61447407 66.26882014 5.28950556 69.74926758 6.00317383 C70.95993896 6.25083496 72.17061035 6.49849609 73.41796875 6.75366211 C84.79410493 9.20491922 95.5573943 12.90750893 106.31176758 17.31567383 C103.51123855 19.54411661 100.77007247 21.16729149 97.52270508 22.66333008 C96.1222998 23.31712646 96.1222998 23.31712646 94.69360352 23.98413086 C93.70134766 24.44416504 92.7090918 24.90419922 91.68676758 25.37817383 C83.20701054 29.36035793 74.93980175 33.57606312 66.80932617 38.22998047 C63.99720359 39.83846696 61.39472061 41.28802282 58.31176758 42.31567383 C57.7780957 41.60282227 57.24442383 40.8899707 56.69458008 40.15551758 C51.54559153 33.53666206 46.51313431 28.61288283 39.31176758 24.31567383 C38.37977539 23.7355957 38.37977539 23.7355957 37.42895508 23.14379883 C21.25387307 14.04093882 -0.09890467 13.77097578 -17.68823242 18.31567383 C-35.65878016 23.46037628 -50.231514 33.53760835 -63.68823242 46.31567383 C-64.20224609 46.79182129 -64.71625977 47.26796875 -65.24584961 47.75854492 C-80.72247247 62.1518956 -92.63302559 79.39907211 -103.68823242 97.31567383 C-104.07672363 97.94248047 -104.46521484 98.56928711 -104.86547852 99.21508789 C-111.14511642 109.38975876 -116.99528759 119.80337115 -122.68823242 130.31567383 C-123.12973633 131.12875 -123.57124023 131.94182617 -124.02612305 132.77954102 C-163.33929982 205.58484479 -195.1876971 286.9309928 -215.57495117 367.13598633 C-216.31619182 370.03194955 -217.17982196 372.84734109 -218.14916992 375.67504883 C-219.91740716 380.8613543 -221.27303751 386.13333295 -222.62573242 391.44067383 C-223.15410755 393.48892076 -223.68275329 395.53709791 -224.21166992 397.58520508 C-224.46529297 398.57085449 -224.71891602 399.55650391 -224.98022461 400.57202148 C-226.85283692 407.82871704 -228.74377045 415.08278116 -230.83276367 422.28051758 C-234.40586039 434.66706124 -237.18723194 447.19086314 -239.91772461 459.78686523 C-240.67420503 463.25143052 -241.44731932 466.71179718 -242.22729492 470.17114258 C-245.60899411 485.17702758 -248.77492753 500.21181168 -251.68823242 515.31567383 C-251.89303223 516.37157715 -252.09783203 517.42748047 -252.30883789 518.51538086 C-258.95093236 552.9391632 -264.17094582 587.64868848 -267.37573242 622.56567383 C-267.49513184 623.86045654 -267.61453125 625.15523926 -267.73754883 626.48925781 C-269.30027775 644.28423978 -269.8956641 662.01717555 -269.87573242 679.87817383 C-269.87482605 681.38679993 -269.87482605 681.38679993 -269.87390137 682.92590332 C-269.83846662 704.70617169 -269.52269342 726.18792973 -263.68823242 747.31567383 C-263.50921387 747.99243164 -263.33019531 748.66918945 -263.14575195 749.36645508 C-257.59111916 770.09846543 -247.66559979 789.26373974 -229.12573242 801.00317383 C-212.24544566 810.26750921 -190.23656896 811.35193866 -171.62573242 806.81567383 C-169.29192215 806.04403251 -166.97939965 805.20598469 -164.68823242 804.31567383 C-163.59406006 803.91300293 -163.59406006 803.91300293 -162.4777832 803.50219727 C-150.83716196 799.18802489 -140.63367277 793.73038213 -130.68823242 786.31567383 C-129.7884668 785.64665039 -128.88870117 784.97762695 -127.96166992 784.28833008 C-118.82317349 777.19511618 -109.92425723 769.36070484 -102.68823242 760.31567383 C-98.61586213 762.55655483 -94.55486848 764.81201545 -90.53588867 767.14770508 C-72.89120241 777.39496273 -54.71997264 785.06243051 -35.68823242 792.31567383 C-39.51039033 796.67148558 -44.95437011 798.25153949 -50.18823242 800.44067383 C-51.33936523 800.9242334 -52.49049805 801.40779297 -53.67651367 801.90600586 C-66.13176485 807.04565244 -78.82774802 811.31648078 -91.68823242 815.31567383 C-92.89189453 815.69780029 -92.89189453 815.69780029 -94.11987305 816.08764648 C-106.02298484 819.83205587 -118.22651489 822.07580422 -130.49389648 824.26171875 C-131.15918869 824.38341431 -131.8244809 824.50510986 -132.50993347 824.63049316 C-134.34370524 824.96565189 -136.17913888 825.29168027 -138.01464844 825.6171875 C-138.89693115 825.84768799 -139.77921387 826.07818848 -140.68823242 826.31567383 C-141.01823242 826.97567383 -141.34823242 827.63567383 -141.68823242 828.31567383 C-140.72401367 828.4162207 -139.75979492 828.51676758 -138.76635742 828.62036133 C-134.10246596 829.29827962 -129.84756956 830.81493574 -125.43823242 832.44067383 C-124.50712646 832.78195312 -123.57602051 833.12323242 -122.61669922 833.47485352 C-101.8070803 841.27160605 -81.52023688 850.56538375 -61.23657227 859.61987305 C-22.79130894 876.77534163 15.81777553 893.98389703 55.65161133 907.69458008 C59.50240381 909.02262669 63.3122467 910.4423585 67.12426758 911.87817383 C75.19599555 914.78208543 83.4997845 916.7938164 91.80786133 918.90161133 C96.19316894 920.01602697 100.53514286 921.22149325 104.87426758 922.50317383 C113.73044432 925.04396598 122.38188299 927.12454242 131.57739258 927.82739258 C149.43786999 929.40173558 160.51948202 934.59118534 174.69702148 945.39672852 C178.97636295 948.53730965 183.55276792 951.11590984 188.20166016 953.6640625 C189.87426758 954.61645508 189.87426758 954.61645508 192.31176758 956.31567383 C192.31176758 959.31567383 192.31176758 959.31567383 190.87036133 961.00708008 C151.98080462 995.31296896 96.56098956 1009.61490062 45.68676758 1009.44067383 C43.98133789 1009.44647461 43.98133789 1009.44647461 42.24145508 1009.45239258 C31.89006287 1009.44052172 21.98592618 1008.82149968 11.93676758 1006.25317383 C11.08953125 1006.03765869 10.24229492 1005.82214355 9.36938477 1005.60009766 C-6.41870895 1001.40665705 -21.32027698 995.01855282 -35.68823242 987.31567383 C-36.38980469 986.94748535 -37.09137695 986.57929687 -37.81420898 986.19995117 C-71.60376631 968.4329899 -101.82032406 943.08502556 -129.64916992 917.13598633 C-132.42050829 914.55372222 -135.23534449 912.02349691 -138.06323242 909.50317383 C-141.49454482 906.4315958 -144.77151343 903.26100941 -147.99682617 899.97583008 C-149.72912416 898.2755376 -151.52845355 896.70234371 -153.37573242 895.12817383 C-156.9897287 892.01943529 -160.34025148 888.70379093 -163.68823242 885.31567383 C-168.19810656 880.76899856 -172.75821478 876.41037287 -177.68823242 872.31567383 C-178.48342285 871.64181641 -178.48342285 871.64181641 -179.29467773 870.9543457 C-189.58523303 862.24823571 -200.25434095 854.45388133 -211.68823242 847.31567383 C-212.8404126 846.59130127 -212.8404126 846.59130127 -214.01586914 845.85229492 C-235.73735661 832.36921617 -259.64471146 823.17197434 -283.43823242 814.06567383 C-314.52392423 802.15715175 -341.52696401 786.32801479 -365.68823242 763.31567383 C-366.9315332 762.16905273 -366.9315332 762.16905273 -368.19995117 760.99926758 C-379.60593943 750.14429324 -388.95756417 736.98809537 -396.68823242 723.31567383 C-397.2209375 722.38948242 -397.2209375 722.38948242 -397.7644043 721.44458008 C-404.37612602 709.87120236 -409.27905021 697.87849269 -413.68823242 685.31567383 C-414.07624023 684.22383789 -414.46424805 683.13200195 -414.86401367 682.00708008 C-426.44527385 646.88202347 -429.11544324 609.97539087 -429.06323242 573.25317383 C-429.06368561 572.00084961 -429.06413879 570.74852539 -429.06460571 569.45825195 C-429.03605116 542.40313673 -426.92992937 515.99248112 -422.36425781 489.3425293 C-421.69034495 485.38524696 -421.12784501 481.4202235 -420.61303711 477.43920898 C-419.169615 466.31263433 -416.91414328 455.4484688 -414.40942383 444.51831055 C-413.65453798 441.16604498 -412.94015458 437.80684427 -412.23120117 434.44458008 C-402.40823566 388.4842821 -387.82769114 343.64555542 -369.68823242 300.31567383 C-369.19419922 299.12167969 -368.70016602 297.92768555 -368.19116211 296.69750977 C-355.99828205 267.32267848 -341.91998668 238.67563998 -325.68823242 211.31567383 C-324.84615234 209.88892334 -324.84615234 209.88892334 -323.98706055 208.43334961 C-316.05112065 195.03647448 -307.6696616 182.03344314 -298.68823242 169.31567383 C-297.89400879 168.18137939 -297.89400879 168.18137939 -297.08374023 167.02416992 C-289.12622301 155.67805646 -280.65661986 144.87799289 -271.68823242 134.31567383 C-271.12040039 133.64342773 -270.55256836 132.97118164 -269.9675293 132.27856445 C-263.86457705 125.06853246 -257.6601472 118.11291016 -250.89135742 111.51879883 C-248.83563431 109.46307572 -246.94177286 107.34519002 -245.06323242 105.12817383 C-242.22125312 101.81584363 -239.17018629 98.97597028 -235.84448242 96.15551758 C-233.47413928 94.13299652 -231.17684937 92.04153534 -228.87573242 89.94067383 C-223.62362613 85.21377817 -218.22599271 80.70311815 -212.68823242 76.31567383 C-212.09187988 75.84145996 -211.49552734 75.36724609 -210.88110352 74.87866211 C-179.86836987 50.34292416 -145.96525302 30.60567309 -108.68823242 17.31567383 C-108.03516113 17.07655273 -107.38208984 16.83743164 -106.70922852 16.59106445 C-86.77366926 9.30291039 -66.14757665 5.33606028 -45.13085938 2.7578125 C-42.85883174 2.46601461 -40.59104878 2.13869843 -38.32958984 1.77392578 C-25.60320755 -0.14782899 -12.84763496 -0.02128266 0 0 Z " fill="#000000" transform="translate(526.688232421875,43.684326171875)"/>
<path d="M0 0 C8.5581813 3.7380562 15.13713704 11.94956352 21 19 C21.75925781 19.87140625 22.51851562 20.7428125 23.30078125 21.640625 C56.37492693 60.11568094 72.15123308 110.58038022 77.5625 160.3125 C77.75102539 161.97442383 77.75102539 161.97442383 77.94335938 163.66992188 C83.48825962 213.92239481 78.52279328 264.23882752 71 314 C70.8129248 315.25522461 70.62584961 316.51044922 70.43310547 317.80371094 C66.08358865 346.65593103 59.84996698 375.66482472 51.31640625 403.578125 C50.33806306 406.80142297 49.44712708 410.03931429 48.58984375 413.296875 C26.60319509 496.18034213 -12.25505004 580.36638066 -68 646 C-68.8843172 647.0584245 -69.76841943 648.11702863 -70.65234375 649.17578125 C-86.22013964 667.70228317 -103.03556095 684.9377089 -122 700 C-123.12771372 700.92927916 -124.25393025 701.86037721 -125.37890625 702.79296875 C-132.26044332 708.46017137 -139.32272518 713.78622179 -146.6875 718.8125 C-147.45392822 719.34657471 -148.22035645 719.88064941 -149.01000977 720.4309082 C-149.73244873 720.91390381 -150.4548877 721.39689941 -151.19921875 721.89453125 C-152.15574341 722.54192261 -152.15574341 722.54192261 -153.1315918 723.20239258 C-155.52917778 724.22590145 -156.60246477 723.93819266 -159 723 C-180.26694897 706.0732447 -187.72996194 675.63348595 -190.73730469 649.79077148 C-191.19222676 644.95785862 -191.46738941 640.11430612 -191.73999023 635.26831055 C-191.90014019 632.47673321 -192.10407682 629.6945582 -192.35180664 626.90942383 C-194.5316214 601.71882945 -189.10605165 583.45407957 -178.51792908 560.73471069 C-174.3016633 551.64497349 -170.77327393 542.33559143 -167.3125 532.9375 C-166.69920265 531.28664798 -166.0857588 529.63585038 -165.47216797 527.98510742 C-158.9760186 510.44100927 -152.79608021 492.78343488 -146.71875 475.09051514 C-146.05815162 473.16913648 -145.39445912 471.24882237 -144.73046875 469.32861328 C-140.20059331 456.20403859 -136.19102472 442.99852269 -132.54296875 429.6015625 C-131.33056474 425.15303395 -130.03657762 420.73553814 -128.69897461 416.32324219 C-127.64871327 412.83239802 -126.66125209 409.32534571 -125.6875 405.8125 C-125.47657715 405.05187256 -125.2656543 404.29124512 -125.04833984 403.50756836 C-122.81569863 395.40508378 -120.69522749 387.27405869 -118.59375 379.13671875 C-117.53218157 375.02905327 -116.44701763 370.92868563 -115.34375 366.83203125 C-110.22471433 347.693585 -106.01202629 328.39487199 -102 309 C-101.84853516 308.27143799 -101.69707031 307.54287598 -101.54101562 306.79223633 C-94.14215176 271.16702992 -88.42742606 235.20401851 -83.75 199.125 C-83.62415527 198.1634198 -83.49831055 197.2018396 -83.36865234 196.21112061 C-81.99006131 185.57330605 -80.86014219 174.96937075 -80.19921875 164.26171875 C-78.81580901 142.59612305 -76.48004968 125.76858437 -65.53320312 106.68701172 C-63.85073744 103.73841023 -62.35744445 100.7361053 -60.89404297 97.67504883 C-59.69100564 95.16877581 -58.4203869 92.6998548 -57.14746094 90.22851562 C-56.28280172 88.54923704 -55.42215987 86.86788902 -54.56347656 85.18554688 C-47.76643508 71.87589395 -40.81832523 58.73899111 -33 46 C-32.31454102 44.86836426 -32.31454102 44.86836426 -31.61523438 43.71386719 C-24.43865909 31.89048369 -16.61149368 20.81831481 -8 10 C-7.33266846 9.15695313 -7.33266846 9.15695313 -6.65185547 8.296875 C-4.4512786 5.51756103 -2.23673069 2.75030027 0 0 Z " fill="#000000" transform="translate(683,92)"/>
<path d="M0 0 C5.28729633 4.18577626 10.25521349 8.39931287 14.15625 13.92578125 C14.19921875 15.84765625 14.19921875 15.84765625 13.15625 17.92578125 C11.03597914 19.56348691 8.98788756 20.96307133 6.71875 22.36328125 C5.3457041 23.24566761 3.9746972 24.13123277 2.60546875 25.01953125 C1.88020996 25.48875 1.15495117 25.95796875 0.40771484 26.44140625 C-10.63593933 33.72241009 -21.10653056 41.69623339 -31.05322266 50.40649414 C-32.43396486 51.57807292 -33.83972886 52.72020496 -35.25537109 53.84936523 C-41.96030821 59.20241356 -48.09739794 64.89671671 -54.11572266 70.99194336 C-55.60131468 72.49593964 -57.09490205 73.9916303 -58.58984375 75.48632812 C-63.88259926 80.79845859 -68.9805531 86.21808183 -73.84375 91.92578125 C-74.76900852 92.97426942 -75.69601669 94.0212169 -76.625 95.06640625 C-96.02851223 117.14773068 -112.80946902 141.70838457 -127.84375 166.92578125 C-128.43269043 167.91288086 -129.02163086 168.89998047 -129.62841797 169.91699219 C-175.06677903 246.48926882 -205.68757741 331.29625033 -230.84375 478.92578125 C-230.94961426 479.93995117 -231.05547852 480.95412109 -231.16455078 481.99902344 C-234.31716633 512.82570794 -234.67378405 545.16061643 -230.84375 575.92578125 C-230.71484375 577.05113281 -230.5859375 578.17648437 -230.453125 579.3359375 C-225.55821494 621.71316814 -212.8190298 666.40037707 -183.84375 698.92578125 C-183.13863281 699.73917969 -182.43351563 700.55257812 -181.70703125 701.390625 C-179.46042527 703.94376968 -177.16660233 706.44182787 -174.84375 708.92578125 C-173.96203125 709.87324219 -173.0803125 710.82070313 -172.171875 711.796875 C-164.4708585 719.87561243 -155.90553539 726.43993486 -146.84375 732.92578125 C-150.77380459 741.11892776 -157.94604675 747.20452649 -164.84375 752.92578125 C-165.65457031 753.62445312 -166.46539062 754.323125 -167.30078125 755.04296875 C-180.07768596 765.85563482 -193.21438026 773.10247003 -208.84375 778.92578125 C-210.6071875 779.61220703 -210.6071875 779.61220703 -212.40625 780.3125 C-230.12310373 786.15660106 -253.18294162 785.34852429 -270.05078125 777.41796875 C-289.9185192 766.67189665 -300.71842567 748.30490603 -307.08422852 727.19750977 C-307.68757488 725.1112339 -308.27026151 723.0204516 -308.84375 720.92578125 C-309.03211426 720.2498291 -309.22047852 719.57387695 -309.41455078 718.87744141 C-319.4587397 681.85542223 -316.4258547 638.76414748 -312.84375 600.92578125 C-312.68302002 599.21745117 -312.68302002 599.21745117 -312.51904297 597.47460938 C-311.72698229 589.279606 -310.81069084 581.10181533 -309.84375 572.92578125 C-309.61534424 570.97937744 -309.61534424 570.97937744 -309.38232422 568.99365234 C-307.28743868 551.23518791 -304.90436963 533.54658701 -301.84375 515.92578125 C-301.71226562 515.1637439 -301.58078125 514.40170654 -301.4453125 513.61657715 C-297.36047354 489.95816469 -292.86158491 466.4713131 -287.30221558 443.11390686 C-286.13625221 438.20573236 -285.01848057 433.28825654 -283.92578125 428.36328125 C-283.69259438 427.31500908 -283.69259438 427.31500908 -283.45469666 426.24555969 C-282.72491964 422.96296642 -281.99851723 419.67970881 -281.27709961 416.39526367 C-279.68924475 409.28145875 -277.85054653 402.29048935 -275.80761719 395.29418945 C-274.35105578 390.20397219 -273.09760728 385.06893775 -271.84375 379.92578125 C-269.68606335 371.20090062 -267.39119712 362.54584001 -264.84375 353.92578125 C-264.34797328 352.20601283 -263.85327866 350.48593228 -263.359375 348.765625 C-261.54954393 342.47712938 -259.70396102 336.19954431 -257.84375 329.92578125 C-257.54436523 328.91354492 -257.24498047 327.90130859 -256.93652344 326.85839844 C-241.56079742 275.23871504 -223.32359101 224.32336113 -201.84375 174.92578125 C-201.33312012 173.74902832 -200.82249023 172.57227539 -200.29638672 171.35986328 C-178.31289631 120.94669992 -154.16932851 67.21381408 -115.84375 26.92578125 C-115.30621094 26.35569336 -114.76867187 25.78560547 -114.21484375 25.19824219 C-86.00652746 -4.54448251 -38.15394495 -27.82931974 0 0 Z " fill="#FEFEFE" transform="translate(570.84375,70.07421875)"/>
<path d="M0 0 C0.85980469 0.350625 1.71960938 0.70125 2.60546875 1.0625 C21.37075362 9.44141789 32.05022571 26.83533139 39.28125 45.265625 C49.10673934 73.69999565 48.50818291 102.96105788 48.03710938 132.62957764 C48.00482252 134.69195388 47.97845408 136.75442111 47.953125 138.81689453 C47.64653462 160.07063387 45.34005841 181.24837055 43.25524902 202.38604736 C43.01994501 204.79574723 42.79179906 207.20596447 42.56738281 209.61669922 C38.7247395 250.71250248 31.49521844 291.62425793 23 332 C22.85022705 332.71279114 22.7004541 333.42558228 22.54614258 334.15997314 C15.80806982 366.11954567 8.30840027 398.01380258 -1.18212891 429.27539062 C-2.0329781 432.10986136 -2.85426769 434.95152777 -3.66796875 437.796875 C-7.79812648 452.22275639 -12.32455125 466.50108814 -16.96704102 480.76953125 C-17.95247889 483.85138282 -18.89037202 486.94399488 -19.8203125 490.04296875 C-22.66647685 499.3307823 -25.93494764 508.47343939 -29.1875 517.625 C-29.53359314 518.59931976 -29.87968628 519.57363953 -30.23626709 520.57748413 C-45.7832892 564.22574207 -63.59348007 606.68623842 -84.11914062 648.21289062 C-85.42200557 650.85617537 -86.71028264 653.50653095 -88 656.15625 C-99.80061309 680.26917299 -112.76454955 703.32723944 -130.64990234 723.47802734 C-132.00294733 725.00332254 -133.33913005 726.54236913 -134.67578125 728.08203125 C-153.55455098 749.54561892 -181.47612249 769.2905235 -210.87890625 771.18554688 C-213.92213862 771.2668849 -216.95584549 771.27317884 -220 771.25 C-221.01578125 771.25773438 -222.0315625 771.26546875 -223.078125 771.2734375 C-236.49360198 771.23903884 -248.32599585 768.35356847 -259 760 C-255.63941527 756.32542124 -251.87149958 753.78429194 -247.75 751.0625 C-239.71473884 745.65018624 -232.23986557 739.69302387 -224.80273438 733.49414062 C-223.14602341 732.12102699 -221.47647606 730.76682667 -219.796875 729.421875 C-215.21213487 725.73905096 -210.85211132 722.02223226 -206.7800293 717.77758789 C-205.01448058 716.01446071 -203.1798632 714.40639999 -201.27734375 712.79296875 C-197.00160326 709.07442218 -193.10734421 705.08379819 -189.25 700.9375 C-188.55463135 700.19218018 -187.8592627 699.44686035 -187.14282227 698.67895508 C-160.96180677 670.46294287 -138.79417301 638.54977246 -120 605 C-119.24614014 603.65687744 -119.24614014 603.65687744 -118.47705078 602.28662109 C-97.64519575 564.97883958 -81.55433158 526.17718959 -67.39233398 485.93530273 C-66.48992617 483.37415688 -65.57056389 480.82138417 -64.64086914 478.26977539 C-61.95605074 470.89549439 -59.61010512 463.5122886 -57.5625 455.9375 C-56.96036936 453.74198608 -56.35749389 451.54667631 -55.75390625 449.3515625 C-55.45887207 448.27551758 -55.16383789 447.19947266 -54.85986328 446.09082031 C-54.08630397 443.3102238 -53.28572419 440.54036609 -52.46484375 437.7734375 C-41.15630099 399.61225956 -34.44653542 360.36726165 -29 321 C-28.90559631 320.318237 -28.81119263 319.636474 -28.71392822 318.93405151 C-27.19380035 307.79775914 -26.18773376 296.6447597 -25.375 285.4375 C-25.30963043 284.53824799 -25.24426086 283.63899597 -25.1769104 282.7124939 C-23.31583676 256.47167248 -22.58934143 229.86445124 -25.68798828 203.68994141 C-26.02200046 200.81032785 -26.30731851 197.92806645 -26.58984375 195.04296875 C-31.91877447 143.1738912 -49.50849587 84.66320012 -89 48 C-93.33333333 43.66666667 -97.66666667 39.33333333 -102 35 C-78.59494184 6.9139302 -37.00797976 -16.66729755 0 0 Z " fill="#FEFEFD" transform="translate(786,57)"/>
<path d="M0 0 C0.72380859 0.30059326 1.44761719 0.60118652 2.19335938 0.91088867 C30.36443937 12.82515145 55.71430326 27.0740104 78.75 47.1875 C79.48863281 47.82558594 80.22726562 48.46367188 80.98828125 49.12109375 C82.92020301 50.79749079 84.83697068 52.48959044 86.75 54.1875 C87.51570312 54.86039063 88.28140625 55.53328125 89.0703125 56.2265625 C93.6484614 60.28805509 98.07418302 64.45882548 102.375 68.8125 C106.09818072 72.57763205 109.89645682 76.1417924 113.921875 79.578125 C115.77937988 81.21336434 117.51606009 82.92231793 119.25 84.6875 C122.19600215 87.67984375 125.27983007 90.44074172 128.4609375 93.1796875 C130.68530027 95.13074973 132.86093643 97.1284493 135.02954102 99.14111328 C141.07609391 104.74758421 147.32067845 110.02108089 153.75 115.1875 C155.08426293 116.27750892 156.41752945 117.36873824 157.75 118.4609375 C159.16665202 119.61980957 160.58331865 120.77866378 162 121.9375 C162.99241699 122.75226807 162.99241699 122.75226807 164.00488281 123.58349609 C167.18052007 126.17255574 170.37776047 128.66430809 173.734375 131.015625 C174.72953125 131.73234375 175.7246875 132.4490625 176.75 133.1875 C176.75 133.5175 176.75 133.8475 176.75 134.1875 C171.1521232 134.30071549 165.89722917 133.96008061 160.375 133.0625 C159.57263916 132.93343262 158.77027832 132.80436523 157.94360352 132.67138672 C146.43059403 130.7273921 135.07972851 127.98869378 123.75 125.1875 C122.94771973 124.98930664 122.14543945 124.79111328 121.31884766 124.58691406 C70.0776755 111.67593379 21.356438 89.06187951 -26.80639648 67.75509644 C-71.19147119 47.22646911 -71.19147119 47.22646911 -117.25 31.1875 C-116.92 30.1975 -116.59 29.2075 -116.25 28.1875 C-115.47325928 28.05287354 -114.69651855 27.91824707 -113.89624023 27.77954102 C-79.88509261 21.78635437 -46.0677559 12.89251026 -15.11181641 -2.78442383 C-9.70640823 -4.72625746 -5.06277453 -2.10362408 0 0 Z " fill="#FDFDFD" transform="translate(502.25,840.8125)"/>
<path d="M0 0 C0.33 0 0.66 0 1 0 C1.29077035 13.36308321 0.48805914 26.30182761 -1.125 39.5625 C-1.35122866 41.48117338 -1.57721619 43.39987521 -1.80297852 45.31860352 C-4.17849286 65.26305831 -6.9848589 85.14317717 -10 105 C-10.12010437 105.79581482 -10.24020874 106.59162964 -10.36395264 107.41156006 C-18.52081385 161.40472779 -29.73633269 215.4733815 -45.45703125 267.80078125 C-46.81383411 272.31990635 -48.06616386 276.8622932 -49.29663086 281.41723633 C-50.27800477 285.02083042 -51.31790185 288.60550864 -52.375 292.1875 C-52.55804687 292.81462891 -52.74109375 293.44175781 -52.9296875 294.08789062 C-66.06878787 338.73489946 -81.68080023 382.77609467 -99.14929199 425.89892578 C-99.96920371 427.92393947 -100.78620688 429.95010364 -101.60253906 431.9765625 C-102.99411023 435.42671707 -104.40048183 438.87065626 -105.8125 442.3125 C-106.4161438 443.79810425 -106.4161438 443.79810425 -107.03198242 445.3137207 C-107.39912354 446.19632568 -107.76626465 447.07893066 -108.14453125 447.98828125 C-108.45753174 448.74665283 -108.77053223 449.50502441 -109.09301758 450.28637695 C-110 452 -110 452 -112 453 C-112.72938695 364.23991127 -90.16337095 271.79336908 -65.83642578 186.92382812 C-65.04448433 184.15550038 -64.2676387 181.38344615 -63.49609375 178.609375 C-59.51555596 164.36615445 -55.14252859 150.24402513 -50.67901611 136.14569092 C-50.21651993 134.68420297 -49.75475711 133.22248278 -49.29364014 131.76055908 C-35.16204412 86.96210781 -19.011851 42.96808346 0 0 Z " fill="#FEFDFC" transform="translate(604,229)"/>
</svg>
